<svg xmlns="http://www.w3.org/2000/svg" xmlns:xlink="http://www.w3.org/1999/xlink" viewBox="0 0 540.84 148.14"><defs><style>.cls-1{isolation:isolate;}.cls-2{fill:#002e72;}.cls-3{mix-blend-mode:multiply;}.cls-4{fill:url(#linear-gradient);}.cls-5{fill:url(#linear-gradient-2);}.cls-6{fill:url(#linear-gradient-3);}.cls-7{fill:url(#linear-gradient-4);}.cls-8{fill:url(#linear-gradient-5);}.cls-9{fill:url(#linear-gradient-6);}.cls-10{fill:url(#linear-gradient-7);}.cls-11{fill:url(#linear-gradient-8);}.cls-12{fill:url(#linear-gradient-9);}.cls-13{fill:url(#linear-gradient-10);}.cls-14{fill:url(#linear-gradient-11);}.cls-15{fill:url(#linear-gradient-12);}.cls-16{fill:url(#linear-gradient-13);}.cls-17{fill:url(#linear-gradient-14);}.cls-18{fill:url(#linear-gradient-15);}.cls-19{fill:url(#linear-gradient-16);}.cls-20{fill:url(#linear-gradient-17);}.cls-21{fill:url(#linear-gradient-18);}.cls-22{fill:url(#linear-gradient-19);}.cls-23{fill:url(#linear-gradient-20);}</style><linearGradient id="linear-gradient" x1="-899.58" y1="-1150.94" x2="-475.38" y2="-796.46" gradientTransform="translate(1089.67 885.19) rotate(-14.79)" gradientUnits="userSpaceOnUse"><stop offset="0" stop-color="#27aae1"/><stop offset="1" stop-color="#2b3990"/></linearGradient><linearGradient id="linear-gradient-2" x1="-936.47" y1="-1106.79" x2="-512.27" y2="-752.31" xlink:href="#linear-gradient"/><linearGradient id="linear-gradient-3" x1="-923.44" y1="-1122.38" x2="-499.24" y2="-767.9" xlink:href="#linear-gradient"/><linearGradient id="linear-gradient-4" x1="-865.61" y1="-1191.58" x2="-441.41" y2="-837.1" xlink:href="#linear-gradient"/><linearGradient id="linear-gradient-5" x1="-925.1" y1="-1120.39" x2="-500.9" y2="-765.91" xlink:href="#linear-gradient"/><linearGradient id="linear-gradient-6" x1="-934.96" y1="-1108.59" x2="-510.76" y2="-754.11" xlink:href="#linear-gradient"/><linearGradient id="linear-gradient-7" x1="-878.37" y1="-1176.31" x2="-454.17" y2="-821.84" xlink:href="#linear-gradient"/><linearGradient id="linear-gradient-8" x1="-900.99" y1="-1149.24" x2="-476.79" y2="-794.76" xlink:href="#linear-gradient"/><linearGradient id="linear-gradient-9" x1="-933.79" y1="-1110" x2="-509.59" y2="-755.52" xlink:href="#linear-gradient"/><linearGradient id="linear-gradient-10" x1="-873.61" y1="-1182.01" x2="-449.41" y2="-827.54" xlink:href="#linear-gradient"/><linearGradient id="linear-gradient-11" x1="-922.72" y1="-1123.24" x2="-498.52" y2="-768.77" xlink:href="#linear-gradient"/><linearGradient id="linear-gradient-12" x1="-943.26" y1="-1098.66" x2="-519.06" y2="-744.18" xlink:href="#linear-gradient"/><linearGradient id="linear-gradient-13" x1="-916.19" y1="-1131.06" x2="-491.99" y2="-776.58" xlink:href="#linear-gradient"/><linearGradient id="linear-gradient-14" x1="-870.96" y1="-1185.18" x2="-446.76" y2="-830.7" xlink:href="#linear-gradient"/><linearGradient id="linear-gradient-15" x1="-854.97" y1="-1204.32" x2="-430.77" y2="-849.84" xlink:href="#linear-gradient"/><linearGradient id="linear-gradient-16" x1="-930.85" y1="-1113.51" x2="-506.65" y2="-759.03" xlink:href="#linear-gradient"/><linearGradient id="linear-gradient-17" x1="-941.79" y1="-1100.42" x2="-517.59" y2="-745.94" xlink:href="#linear-gradient"/><linearGradient id="linear-gradient-18" x1="-931.24" y1="-1113.04" x2="-507.04" y2="-758.57" xlink:href="#linear-gradient"/><linearGradient id="linear-gradient-19" x1="-862.33" y1="-1195.51" x2="-438.13" y2="-841.03" xlink:href="#linear-gradient"/><linearGradient id="linear-gradient-20" x1="-891.7" y1="-1160.37" x2="-467.5" y2="-805.89" xlink:href="#linear-gradient"/></defs><title>Final AASRITA LOGO</title><g class="cls-1"><g id="Layer_2" data-name="Layer 2"><g id="Layer_1-2" data-name="Layer 1"><path class="cls-2" d="M104.65,103.07l-7.38-15H69.51l2.81-5.86H94.57L78.18,48.48,51.71,103.07h-7L74.19,42.63h8l29.52,60.44Z"/><path class="cls-2" d="M185,103.07l-7.38-15H149.86l2.81-5.86h22.25l-16.4-33.73-26.47,54.58h-7l29.52-60.44h8L192,103.07Z"/><path class="cls-2" d="M217.68,87.37a9.2,9.2,0,0,0,2.75,7Q223.18,97,228.57,97h21a10.37,10.37,0,0,0,7.91-3.16,11,11,0,0,0,3-7.85,11.37,11.37,0,0,0-2.87-7.73,10.1,10.1,0,0,0-8-3.28h-21a15.09,15.09,0,0,1-11.24-4.69,15.81,15.81,0,0,1-4.57-11.48,15.87,15.87,0,0,1,4.57-11.42,15,15,0,0,1,11.24-4.74h21.32a16.55,16.55,0,0,1,11.36,3.92,12.63,12.63,0,0,1,4.45,9.9v.94h-6.44v-.94A7.35,7.35,0,0,0,256.92,51q-2.34-2.28-7.5-2.28H229.27a9.71,9.71,0,0,0-10.07,10,10.93,10.93,0,0,0,2.58,7.2q2.57,3.1,7.5,3.1h20.85A16.18,16.18,0,0,1,262,73.84,16.46,16.46,0,0,1,266.87,86,16.71,16.71,0,0,1,262,98.09a16,16,0,0,1-11.89,5H227.52a18.18,18.18,0,0,1-11-3.92q-5.27-3.92-5.27-11.77v-.12h6.44Z"/><path class="cls-2" d="M337.27,42.63q7.85,0,12.71,4.92a17.09,17.09,0,0,1,4.86,12.53A18,18,0,0,1,350.74,72,20.36,20.36,0,0,1,340,78.7l17.8,24.36h-7.85L332.23,78.82H316.89v-6h18.86a12.58,12.58,0,0,0,9-3.46q3.63-3.45,3.63-9.43a11.25,11.25,0,0,0-3-8.14q-3-3.1-9.66-3.1H306.93v54.35h-6.44V42.63Z"/><path class="cls-2" d="M384.82,103.07V42.63h6.44v60.44Z"/><path class="cls-2" d="M470.56,42.63v6.09H413V42.63ZM445,58.21v44.86h-6.44V58.21Z"/><path class="cls-2" d="M533.81,103.07l-7.38-15H498.67l2.81-5.86h22.25l-16.4-33.73-26.47,54.58h-7l29.52-60.44h8l29.52,60.44Z"/><path class="cls-2" d="M148.11,115.85q8.23,0,8.23,9t-8.39,9q-8.39,0-8.39-9.24Q139.57,115.85,148.11,115.85Zm-.15,1.39a2.08,2.08,0,0,0-2.09,1.58,21.86,21.86,0,0,0-.55,6.06,21.86,21.86,0,0,0,.55,6.06,2.18,2.18,0,0,0,4.19,0,21.89,21.89,0,0,0,.55-6.06,21.89,21.89,0,0,0-.55-6.05A2.08,2.08,0,0,0,148,117.25Z"/><path class="cls-2" d="M205.38,116.16v17.46h-4.19l-7.88-11.05v11.05h-1.84V116.16h3.47l8.59,11.94V116.16Z"/><path class="cls-2" d="M253.67,121l-2.54.43a5.29,5.29,0,0,0,.17-1.18q0-3-4-3-3.15,0-3.15,2.1,0,1.57,3.52,2.7,6.8,2.16,6.8,6.4a4.82,4.82,0,0,1-1.91,4,8,8,0,0,1-5.07,1.5q-7,0-7-5a9,9,0,0,1,.07-1l2.64-.54a7.48,7.48,0,0,0-.3,1.93q0,3.25,4,3.25,3.22,0,3.22-2.34,0-1.74-3.85-3.06-5.57-1.89-5.57-6.05a4.57,4.57,0,0,1,1.86-3.79,7.76,7.76,0,0,1,4.88-1.44Q253.67,115.87,253.67,121Z"/><path class="cls-2" d="M303.87,116.16v11.72q0,6-7.2,6t-7.17-6V116.16H295V128a5.06,5.06,0,0,0,.71,3.15,3.32,3.32,0,0,0,2.63.84q3.72,0,3.72-4.14V116.16Z"/><path class="cls-2" d="M345.14,116.16v15.71h7.75v1.75H339.67V116.16Z"/><path class="cls-2" d="M400.11,116.16v1.75h-4.63v15.71h-5.8V117.91H385v-1.75Z"/><path class="cls-2" d="M439.84,116.16v17.46h-5.47V116.16Z"/><path class="cls-2" d="M489.72,116.16v17.46h-4.19l-7.88-11.05v11.05h-1.84V116.16h3.47l8.59,11.94V116.16Z"/><path class="cls-2" d="M533.07,124.19h7.76v9.43H539.1l-.59-1.2a8.64,8.64,0,0,1-4.82,1.5,8.77,8.77,0,0,1-6.5-2.32,8.86,8.86,0,0,1-2.31-6.54,9.16,9.16,0,0,1,2.45-6.65,8.52,8.52,0,0,1,6.42-2.54q5.22,0,6.36,4.94l-2.57,1.09v-.42l0-.95q-.26-3.08-3.08-3.08a2.83,2.83,0,0,0-2.83,1.64q-.76,1.64-.76,6.1a17.25,17.25,0,0,0,.62,5.67,2.31,2.31,0,0,0,2.34,1.5,1.83,1.83,0,0,0,2-2.1v-4.3h-2.72Z"/><g class="cls-3"><path class="cls-4" d="M23.54,97.59A55.75,55.75,0,0,1,66.41,18.86q.17-3,.39-6a61.61,61.61,0,0,0-48.42,87.48Q20.94,99,23.54,97.59Z"/><path class="cls-5" d="M64.07,129.4a3.91,3.91,0,0,1,.05-.5A56.06,56.06,0,0,1,28.8,106.57q-2.61,1.37-5.19,2.81a61.94,61.94,0,0,0,40.3,25.43Q64,132.11,64.07,129.4Z"/><path class="cls-6" d="M118,108.37a55.66,55.66,0,0,1-47.07,21.34q-.11,2.93-.17,5.86a61.5,61.5,0,0,0,52.54-24.51Z"/><path class="cls-7" d="M77.25,12.56q-.22,2.92-.39,5.85a56,56,0,0,1,41.73,22.14q2.55-1.48,5.13-2.92A61.9,61.9,0,0,0,77.25,12.56Z"/></g><g class="cls-3"><path class="cls-8" d="M41.14,124.84c.9-2,1.8-4.06,2.67-6.1l.05-.13.33-.8.52-1.28q.51-1.27,1-2.55c.05-.13.11-.26.17-.39A48.54,48.54,0,0,1,26.79,63C21.5,61.26,16.25,59.34,11,57.36a65.22,65.22,0,0,0,28.19,71.82Z"/><path class="cls-9" d="M55.31,118.84c-1.82,5.25-3.71,10.48-5.47,15.76a64.88,64.88,0,0,0,35.73,3.65l-4.27-16.17A48.32,48.32,0,0,1,55.31,118.84Z"/><path class="cls-10" d="M57.43,11A65,65,0,0,0,17.76,41.22l1.86.8.34.15.26.11,1.49.62q3.47,1.44,7,2.86l4.68,1.9A48.54,48.54,0,0,1,91.55,28.77c.23-.23,6.9-13.86,7.48-14.93A64.88,64.88,0,0,0,57.43,11Z"/></g><g class="cls-3"><path class="cls-11" d="M22.38,87.42a53.36,53.36,0,0,1,84.14-55.93l1.83-2.29A56.29,56.29,0,1,0,97.51,125l-.76-2.88A53.41,53.41,0,0,1,22.38,87.42Z"/></g><g class="cls-3"><path class="cls-12" d="M16.93,89.16q-.64-2.43-1.07-4.86l-9.14-1.6A68.94,68.94,0,0,0,8.43,91.4a67.89,67.89,0,0,0,83,48.31q1.56-.41,3.1-.9l-2.25-8.51c-1,.33-2,.63-3.09.91A59.17,59.17,0,0,1,16.93,89.16Z"/><path class="cls-13" d="M108.23,15.4A67.92,67.92,0,0,0,22.62,29.76a8.43,8.43,0,0,1,1.59.66q3.25,1.77,6.51,3.51a59,59,0,0,1,76.36-8.85q2-3.94,4.08-7.88Q109.72,16.27,108.23,15.4Z"/></g><path class="cls-14" d="M96,142.82l.46,1.82a73.4,73.4,0,0,0,38.12-27.93l-1.73-.86A71.83,71.83,0,0,1,96,142.82Z"/><path class="cls-15" d="M18.41,120l-1.63,1a74.2,74.2,0,0,0,73.1,25.38l-.46-1.82A72.29,72.29,0,0,1,18.41,120Z"/><path class="cls-16" d="M17.24,29.64l-.51-.35a4,4,0,0,1-.95-.89,75.17,75.17,0,0,0-5.69,8.41,74.22,74.22,0,0,0,2.6,78.71l1.61-1a72.12,72.12,0,0,1,2.94-84.88Z"/><path class="cls-17" d="M86.36,1A74.3,74.3,0,0,0,20.1,23.35l.07,0,1.55,1A72.05,72.05,0,0,1,86,2.89Z"/><path class="cls-18" d="M111.33,10.08A74.43,74.43,0,0,0,93,2.46l-.38,1.89a72.73,72.73,0,0,1,27.08,13.87c.1-.19.2-.38.31-.56l.67-1.1A74.63,74.63,0,0,0,111.33,10.08Z"/><g class="cls-3"><path class="cls-19" d="M30.34,123.39A65.87,65.87,0,0,1,8.15,72.51L5.21,72a69.13,69.13,0,0,0,2.28,19.6,68.38,68.38,0,0,0,21.1,34.15Z"/><path class="cls-20" d="M78.45,140.39a2.85,2.85,0,0,1-.41-.49,66,66,0,0,1-42.38-12.27L34,129.86l-.12.16q2.65,1.9,5.51,3.56a68.37,68.37,0,0,0,39.35,9.21Q78.62,141.59,78.45,140.39Z"/><path class="cls-21" d="M90.91,137.82c-1.93.51-3.86.92-5.79,1.25q.2,1.46.39,2.91,3.08-.52,6.14-1.33a69.23,69.23,0,0,0,16.68-6.82l-.78-3A65.71,65.71,0,0,1,90.91,137.82Z"/><path class="cls-22" d="M108.72,14.56A68.38,68.38,0,0,0,58.38,7a3.17,3.17,0,0,1,1.09,1.82l.2.88a66.06,66.06,0,0,1,67.86,25.76l2.6-1.45A68.63,68.63,0,0,0,108.72,14.56Z"/><path class="cls-23" d="M52.87,10.59A3.35,3.35,0,0,1,53,8.5,69,69,0,0,0,5.74,65.27l2.93.46A66.07,66.07,0,0,1,53.09,11.56Z"/></g></g></g></g></svg>